<svg width="15" height="16" viewBox="0 0 15 16" fill="none" xmlns="http://www.w3.org/2000/svg">
<g opacity="0.5" clip-path="url(#clip0_8_350)">
<path d="M6.35632 0H8.17241V8H6.35632V0ZM9.98851 0.59375L10.0311 0.609375C10.6932 0.911458 11.2986 1.3099 11.8472 1.80469C12.3958 2.29948 12.8687 2.86719 13.266 3.50781C13.6633 4.14844 13.973 4.84896 14.1953 5.60938C14.4176 6.36979 14.5287 7.16667 14.5287 8C14.5287 9.10417 14.3396 10.1432 13.9612 11.1172C13.5829 12.0911 13.065 12.9401 12.4076 13.6641C11.7502 14.388 10.9793 14.9583 10.0949 15.375C9.21052 15.7917 8.267 16 7.26437 16C6.26173 16 5.31822 15.7917 4.43382 15.375C3.54942 14.9583 2.77853 14.388 2.12114 13.6641C1.46375 12.9401 0.945881 12.0911 0.567529 11.1172C0.189176 10.1432 0 9.10417 0 8C0 7.16667 0.111141 6.36979 0.333423 5.60938C0.555705 4.84896 0.865481 4.14844 1.26275 3.50781C1.66002 2.86719 2.13769 2.29688 2.69576 1.79688C3.25383 1.29688 3.86865 0.895833 4.54023 0.59375L4.51185 2.82812C4.11458 3.08854 3.74805 3.40104 3.41227 3.76562C3.07648 4.13021 2.79035 4.53385 2.55388 4.97656C2.31741 5.41927 2.13533 5.89583 2.00763 6.40625C1.87994 6.91667 1.81609 7.44792 1.81609 8C1.81609 8.83333 1.95797 9.61458 2.24174 10.3438C2.5255 11.0729 2.91568 11.7083 3.41227 12.25C3.90885 12.7917 4.48584 13.2188 5.14323 13.5312C5.80062 13.8438 6.50766 14 7.26437 14C8.02107 14 8.72812 13.8438 9.38551 13.5312C10.0429 13.2188 10.6199 12.7917 11.1165 12.25C11.6131 11.7083 12.0032 11.0729 12.287 10.3438C12.5708 9.61458 12.7126 8.83333 12.7126 8C12.7126 7.44792 12.6488 6.91667 12.5211 6.40625C12.3934 5.89583 12.209 5.41927 11.9678 4.97656C11.7266 4.53385 11.4381 4.1276 11.1023 3.75781C10.7665 3.38802 10.3952 3.07292 9.98851 2.8125V0.59375Z" fill="white"/>
</g>
<defs>
<clipPath id="clip0_8_350">
<rect width="14.5287" height="16" fill="white"/>
</clipPath>
</defs>
</svg>