<svg width="106" height="33" viewBox="0 0 106 33" fill="none" xmlns="http://www.w3.org/2000/svg">
<rect x="0.710205" y="0.12085" width="32" height="16" fill="white"/>
<rect x="0.710205" y="20.0876" width="32" height="4" fill="white"/>
<rect x="0.710205" y="28.0546" width="32" height="4" fill="white"/>
<rect width="57" height="22" transform="translate(48.614 5.12085)" fill="#101010"/>
<path d="M58.9453 21.1208H58.2413C58.092 21.1208 58.0173 21.0462 58.0173 20.8968V11.0568C58.0173 10.9075 58.092 10.8328 58.2413 10.8328H58.8973C59.0253 10.8328 59.1107 10.8755 59.1533 10.9608L63.5693 18.7208H63.6333V11.0568C63.6333 10.9075 63.708 10.8328 63.8573 10.8328H64.5613C64.7107 10.8328 64.7853 10.9075 64.7853 11.0568V20.8968C64.7853 21.0462 64.7107 21.1208 64.5613 21.1208H63.9693C63.852 21.1208 63.74 21.0515 63.6333 20.9128L59.2333 13.2328H59.1693V20.8968C59.1693 21.0462 59.0947 21.1208 58.9453 21.1208ZM73.2662 21.1208H68.2422C68.0929 21.1208 68.0182 21.0462 68.0182 20.8968V11.0568C68.0182 10.9075 68.0929 10.8328 68.2422 10.8328H73.2662C73.4155 10.8328 73.4902 10.9075 73.4902 11.0568V11.6328C73.4902 11.7822 73.4155 11.8568 73.2662 11.8568H69.3462C69.2395 11.8568 69.1862 11.9048 69.1862 12.0008V15.2328C69.1862 15.3288 69.2395 15.3768 69.3462 15.3768H72.7702C72.9195 15.3768 72.9942 15.4515 72.9942 15.6008V16.1768C72.9942 16.3262 72.9195 16.4008 72.7702 16.4008H69.3462C69.2395 16.4008 69.1862 16.4488 69.1862 16.5448V19.9528C69.1862 20.0488 69.2395 20.0968 69.3462 20.0968H73.2662C73.4155 20.0968 73.4902 20.1715 73.4902 20.3208V20.8968C73.4902 21.0462 73.4155 21.1208 73.2662 21.1208ZM79.1297 21.1208H77.8977C77.7484 21.1208 77.6577 21.0462 77.6257 20.8968L75.5777 11.0568C75.5457 10.9075 75.615 10.8328 75.7857 10.8328H76.6497C76.8097 10.8328 76.895 10.9075 76.9057 11.0568L78.5217 19.8728H78.6177L80.7777 11.0408C80.8097 10.9022 80.895 10.8328 81.0337 10.8328H81.9937C82.1324 10.8328 82.2177 10.9022 82.2497 11.0408L84.4417 19.8728H84.5377L86.1377 11.0728C86.1697 10.9128 86.2604 10.8328 86.4097 10.8328H87.2737C87.4444 10.8328 87.5137 10.9128 87.4817 11.0728L85.4177 20.8968C85.3857 21.0462 85.3004 21.1208 85.1617 21.1208H83.9297C83.7804 21.1208 83.6897 21.0462 83.6577 20.8968L81.5617 12.3048H81.4977L79.3857 20.8968C79.3537 21.0462 79.2684 21.1208 79.1297 21.1208ZM89.7517 18.7528V18.2408C89.7517 18.0915 89.8264 18.0168 89.9757 18.0168H90.6957C90.845 18.0168 90.9197 18.0915 90.9197 18.2408V18.6568C90.9197 19.6168 91.3944 20.0968 92.3437 20.0968H93.7517C94.701 20.0968 95.1757 19.6062 95.1757 18.6248V18.0808C95.1757 17.3128 94.541 16.8115 93.2717 16.5768C92.7384 16.4808 92.205 16.3688 91.6717 16.2408C91.1384 16.1128 90.685 15.8675 90.3117 15.5048C89.9384 15.1315 89.7517 14.6248 89.7517 13.9848V13.2008C89.7517 12.4648 89.9597 11.8888 90.3757 11.4728C90.8024 11.0462 91.3837 10.8328 92.1197 10.8328H93.8957C94.621 10.8328 95.197 11.0462 95.6237 11.4728C96.0504 11.8888 96.2637 12.4648 96.2637 13.2008V13.6008C96.2637 13.7608 96.1944 13.8408 96.0557 13.8408H95.3197C95.181 13.8408 95.1117 13.7608 95.1117 13.6008V13.3128C95.1117 12.3422 94.637 11.8568 93.6877 11.8568H92.3277C91.3784 11.8568 90.9037 12.3635 90.9037 13.3768V14.0168C90.9037 14.5608 91.261 14.9342 91.9757 15.1368C92.2957 15.2222 92.6477 15.3022 93.0317 15.3768C93.4157 15.4408 93.7997 15.5315 94.1837 15.6488C94.5784 15.7555 94.9357 15.8942 95.2557 16.0648C95.5757 16.2248 95.8317 16.4755 96.0237 16.8168C96.2264 17.1475 96.3277 17.5528 96.3277 18.0328V18.7528C96.3277 19.4888 96.1144 20.0702 95.6877 20.4968C95.261 20.9128 94.685 21.1208 93.9597 21.1208H92.1197C91.3944 21.1208 90.8184 20.9128 90.3917 20.4968C89.965 20.0702 89.7517 19.4888 89.7517 18.7528Z" fill="white"/>
</svg>
