<svg width="114" height="33" viewBox="0 0 114 33" fill="none" xmlns="http://www.w3.org/2000/svg">
<path d="M0.574951 0.229904V32.5299H32.875V0.229904H0.574951ZM10.6687 23.6979V8.99885L24.7999 16.3799L10.6687 23.6979Z" fill="white"/>
<rect width="65" height="22" transform="translate(48.614 5.37988)" fill="#101010"/>
<path d="M60.6744 21.3799H59.4424C59.2931 21.3799 59.2024 21.3052 59.1704 21.1559L57.1224 11.3159C57.0904 11.1665 57.1597 11.0919 57.3304 11.0919H58.1944C58.3544 11.0919 58.4397 11.1665 58.4504 11.3159L60.0664 20.1319H60.1624L62.3224 11.2999C62.3544 11.1612 62.4397 11.0919 62.5784 11.0919H63.5384C63.6771 11.0919 63.7624 11.1612 63.7944 11.2999L65.9864 20.1319H66.0824L67.6824 11.3319C67.7144 11.1719 67.8051 11.0919 67.9544 11.0919H68.8184C68.9891 11.0919 69.0584 11.1719 69.0264 11.3319L66.9624 21.1559C66.9304 21.3052 66.8451 21.3799 66.7064 21.3799H65.4744C65.3251 21.3799 65.2344 21.3052 65.2024 21.1559L63.1064 12.5639H63.0424L60.9304 21.1559C60.8984 21.3052 60.8131 21.3799 60.6744 21.3799ZM71.5364 21.3799H70.7364C70.5977 21.3799 70.5497 21.3052 70.5924 21.1559L73.5844 11.3159C73.6271 11.1665 73.7284 11.0919 73.8884 11.0919H75.0404C75.2004 11.0919 75.3017 11.1665 75.3444 11.3159L78.3364 21.1559C78.3791 21.3052 78.3311 21.3799 78.1924 21.3799H77.3764C77.2591 21.3799 77.1844 21.3052 77.1524 21.1559L76.4004 18.8199H72.5284L71.7764 21.1559C71.7337 21.3052 71.6537 21.3799 71.5364 21.3799ZM74.4324 12.2919L72.7844 17.8279H76.1444L74.4964 12.2919H74.4324ZM83.265 21.3799H82.545C82.3957 21.3799 82.321 21.3052 82.321 21.1559V12.2599C82.321 12.1639 82.2677 12.1159 82.161 12.1159H79.985C79.825 12.1159 79.745 12.0412 79.745 11.8919V11.3159C79.745 11.1665 79.825 11.0919 79.985 11.0919H85.825C85.985 11.0919 86.065 11.1665 86.065 11.3159V11.8919C86.065 12.0412 85.985 12.1159 85.825 12.1159H83.649C83.5423 12.1159 83.489 12.1639 83.489 12.2599V21.1559C83.489 21.3052 83.4143 21.3799 83.265 21.3799ZM92.4131 21.3799H90.4931C89.7571 21.3799 89.1758 21.1719 88.7491 20.7559C88.3331 20.3399 88.1251 19.7585 88.1251 19.0119V13.4599C88.1251 12.7132 88.3331 12.1319 88.7491 11.7159C89.1758 11.2999 89.7571 11.0919 90.4931 11.0919H92.4131C93.1491 11.0919 93.7251 11.2999 94.1411 11.7159C94.5678 12.1319 94.7811 12.7132 94.7811 13.4599V14.2439C94.7811 14.3932 94.7065 14.4679 94.5571 14.4679H93.8371C93.6878 14.4679 93.6131 14.3932 93.6131 14.2439V13.5079C93.6131 12.5799 93.1651 12.1159 92.2691 12.1159H90.6211C89.7358 12.1159 89.2931 12.5799 89.2931 13.5079V18.9639C89.2931 19.8919 89.7358 20.3559 90.6211 20.3559H92.2691C93.1651 20.3559 93.6131 19.8919 93.6131 18.9639V18.2279C93.6131 18.0785 93.6878 18.0039 93.8371 18.0039H94.5571C94.7065 18.0039 94.7811 18.0785 94.7811 18.2279V19.0119C94.7811 19.7585 94.5678 20.3399 94.1411 20.7559C93.7251 21.1719 93.1491 21.3799 92.4131 21.3799ZM98.5894 21.3799H97.8694C97.7201 21.3799 97.6454 21.3052 97.6454 21.1559V11.3159C97.6454 11.1665 97.7201 11.0919 97.8694 11.0919H98.5894C98.7387 11.0919 98.8134 11.1665 98.8134 11.3159V15.5239C98.8134 15.6199 98.8667 15.6679 98.9734 15.6679H102.941C103.048 15.6679 103.101 15.6199 103.101 15.5239V11.3159C103.101 11.1665 103.176 11.0919 103.325 11.0919H104.045C104.195 11.0919 104.269 11.1665 104.269 11.3159V21.1559C104.269 21.3052 104.195 21.3799 104.045 21.3799H103.325C103.176 21.3799 103.101 21.3052 103.101 21.1559V16.8359C103.101 16.7399 103.048 16.6919 102.941 16.6919H98.9734C98.8667 16.6919 98.8134 16.7399 98.8134 16.8359V21.1559C98.8134 21.3052 98.7387 21.3799 98.5894 21.3799Z" fill="white"/>
</svg>
